<svg xmlns="http://www.w3.org/2000/svg" width="512" height="512" viewBox="0 0 512 512" version="1.1"><path d="" stroke="none" fill="#080404" fill-rule="evenodd"/><path d="M 223.564 1.625 C 181.446 7.019, 138.228 24.339, 104.500 49.342 C 47.044 91.935, 10.173 154.826, 1.536 224.970 C -0.453 241.116, -0.453 270.884, 1.536 287.030 C 9.406 350.948, 42.537 411.946, 91.313 452.322 C 130.029 484.371, 177.268 504.839, 225.559 510.488 C 242.111 512.424, 269.889 512.424, 286.441 510.488 C 349.786 503.078, 410.477 470.394, 451.687 421.500 C 483.128 384.195, 505.455 333.267, 510.283 287.838 C 510.916 281.877, 511.787 277, 512.217 277 C 512.648 277, 512.964 266.988, 512.921 254.750 C 512.878 242.512, 512.566 233.175, 512.229 234 C 511.891 234.825, 511.041 230.441, 510.338 224.258 C 504.073 169.092, 475.176 111.158, 434.379 71.971 C 393.720 32.917, 342.313 8.343, 287.030 1.536 C 271.561 -0.369, 238.774 -0.323, 223.564 1.625 M 209 110.059 C 192.602 110.537, 181.689 111.334, 176 112.471 C 142.377 119.191, 119.891 141.252, 112.842 174.435 C 109.174 191.702, 107.994 294.715, 111.114 325.314 C 113.072 344.520, 118.527 359.295, 128.035 371.142 C 142.236 388.836, 160.835 398.260, 186.744 400.888 C 214.624 403.716, 319.876 402.800, 335.652 399.592 C 370.124 392.582, 392.566 370.141, 399.595 335.652 C 403.726 315.385, 403.401 194.330, 399.163 174.435 C 392.194 141.721, 370.277 119.804, 337.565 112.838 C 322.540 109.638, 265.665 108.408, 209 110.059 M 196 136.027 C 189.675 136.428, 181.575 137.490, 178 138.388 C 157.211 143.609, 143.915 156.779, 138.513 177.500 C 136.025 187.046, 135.041 209.283, 135.041 256 C 135.041 302.717, 136.025 324.954, 138.513 334.500 C 143.862 355.019, 157.110 368.275, 177.500 373.510 C 187.110 375.978, 209.440 376.959, 256 376.959 C 319.174 376.959, 332.125 375.821, 346.825 368.979 C 355.300 365.034, 365.034 355.300, 368.979 346.825 C 375.821 332.125, 376.959 319.174, 376.959 256 C 376.959 209.440, 375.978 187.110, 373.510 177.500 C 368.275 157.110, 355.019 143.862, 334.500 138.513 C 331.200 137.653, 321.975 136.520, 314 135.995 C 297.463 134.907, 213.317 134.930, 196 136.027 M 328.500 161.457 C 315.466 166.212, 313.397 184.798, 325.109 191.920 C 335.071 197.978, 348.021 193.064, 350.971 182.106 C 354.584 168.689, 341.537 156.700, 328.500 161.457 M 240.856 182.446 C 193.254 192.395, 167.438 244.763, 188.521 288.609 C 197.781 307.867, 216.069 322.979, 237.032 328.693 C 245.949 331.124, 266.051 331.124, 274.968 328.693 C 300.879 321.630, 321.630 300.879, 328.693 274.968 C 331.124 266.051, 331.124 245.949, 328.693 237.032 C 321.688 211.334, 300.861 190.364, 275.500 183.473 C 267.259 181.233, 249.217 180.699, 240.856 182.446 M 242.912 208.384 C 226.436 213.147, 212.764 227.043, 208.361 243.500 C 206.635 249.952, 206.649 262.094, 208.390 268.632 C 212.813 285.243, 226.775 299.164, 243.500 303.639 C 249.952 305.365, 262.094 305.351, 268.632 303.610 C 285.243 299.187, 299.164 285.225, 303.639 268.500 C 305.365 262.048, 305.351 249.906, 303.610 243.368 C 299.953 229.636, 289.783 217.648, 276.397 211.291 C 269.264 207.903, 267.932 207.616, 258.102 207.347 C 251.416 207.164, 245.805 207.547, 242.912 208.384 M 0.428 256 C 0.428 268.375, 0.571 273.438, 0.747 267.250 C 0.922 261.063, 0.922 250.938, 0.747 244.750 C 0.571 238.563, 0.428 243.625, 0.428 256" stroke="none" fill="#040404" fill-rule="evenodd"/></svg>